<?xml version="1.0" encoding="utf-8"?>
<!-- Designed by Vexels.com - 2016 All Rights Reserved - https://vexels.com/terms-and-conditions/  -->

<svg version="1.1" id="Layer_1" xmlns="http://www.w3.org/2000/svg" xmlns:xlink="http://www.w3.org/1999/xlink" x="0px" y="0px"
	 width="1200px" height="1200px" viewBox="0 0 1200 1200" enable-background="new 0 0 1200 1200" xml:space="preserve">
<g>
	<path fill="#786B61" d="M1129.493,668.702c-11.373,55.588-34.144,104.883-85.225,133.078
		c-42.929,23.683-93.968,29.827-142.242,28.976c-118.903-2.12-216.104-61.758-315.282-120.728
		c-98.422-58.508-202.502-104.553-318.224-74.917c-78.941,20.199-137.806,90.318-148.479,169.702
		c0.977-7.309,19.485-12.376,20.502-19.929c7.84-58.169,30.884-100.564,86.368-122.987c41.399-16.747,88.519-18.686,132.496-14.862
		c134.99,11.646,241.829,116.356,361.819,168.642c86.128,37.572,193.02,49.696,281.947,15.574
		c76.556-29.428,130.853-104.398,146.828-182.469C1148.452,656.352,1131.11,660.872,1129.493,668.702L1129.493,668.702z"/>
	<path fill="#786B61" d="M1094.481,530.114c-11.381,55.57-34.152,104.884-85.234,133.061
		c-42.925,23.701-93.972,29.845-142.242,28.993c-118.893-2.121-216.099-61.767-315.281-120.754
		c-98.413-58.499-202.499-104.553-318.225-74.891c-78.932,20.198-137.806,90.292-148.474,169.694
		c0.983-7.309,19.477-12.385,20.507-19.92c7.826-58.196,30.876-100.573,86.368-122.996c41.396-16.748,88.514-18.678,132.487-14.862
		c135.004,11.664,241.83,116.339,361.823,168.651c86.128,37.563,193.021,49.705,281.939,15.549
		c76.568-29.419,130.857-104.389,146.836-182.46C1113.437,517.773,1096.089,522.258,1094.481,530.114L1094.481,530.114z"/>
	<path fill="#786B61" d="M1059.46,391.491c-11.381,55.588-34.151,104.91-85.229,133.087
		c-42.926,23.675-93.968,29.837-142.242,29.002c-118.894-2.138-216.104-61.776-315.287-120.753
		c-98.418-58.491-202.498-104.545-318.219-74.917C119.55,378.116,60.677,448.226,50,527.611
		c0.986-7.308,19.489-12.376,20.511-19.928c7.834-58.169,30.884-100.548,86.363-122.979c41.399-16.747,88.522-18.677,132.491-14.87
		c134.994,11.655,241.833,116.356,361.822,168.65c86.133,37.572,193.02,49.705,281.943,15.54
		c76.564-29.393,130.857-104.362,146.84-182.434C1078.416,379.159,1061.073,383.669,1059.46,391.491L1059.46,391.491z"/>
</g>
</svg>
